<svg width="36" height="36" viewBox="0 0 36 36" fill="none" xmlns="http://www.w3.org/2000/svg">
<path d="M22.1665 9.66652C23.2707 9.66982 24.3286 10.1099 25.1094 10.8906C25.8901 11.6714 26.3302 12.7293 26.3335 13.8335V22.1665C26.3302 23.2707 25.8901 24.3286 25.1094 25.1094C24.3286 25.8901 23.2707 26.3302 22.1665 26.3335H13.8335C12.7293 26.3302 11.6714 25.8901 10.8906 25.1094C10.1099 24.3286 9.66982 23.2707 9.66652 22.1665V13.8335C9.66982 12.7293 10.1099 11.6714 10.8906 10.8906C11.6714 10.1099 12.7293 9.66982 13.8335 9.66652H22.1665ZM22.1665 8H13.8335C10.625 8 8 10.625 8 13.8335V22.1665C8 25.375 10.625 28 13.8335 28H22.1665C25.375 28 28 25.375 28 22.1665V13.8335C28 10.625 25.375 8 22.1665 8Z" fill="currentColor"/>
<path d="M23.4165 13.8335C23.1693 13.8335 22.9276 13.7602 22.7221 13.6228C22.5165 13.4855 22.3563 13.2902 22.2617 13.0618C22.1671 12.8334 22.1423 12.5821 22.1906 12.3396C22.2388 12.0971 22.3578 11.8744 22.5327 11.6996C22.7075 11.5248 22.9302 11.4057 23.1727 11.3575C23.4151 11.3093 23.6665 11.334 23.8949 11.4286C24.1233 11.5232 24.3185 11.6835 24.4559 11.889C24.5932 12.0946 24.6665 12.3363 24.6665 12.5835C24.6669 12.7477 24.6348 12.9104 24.5721 13.0623C24.5094 13.2141 24.4174 13.352 24.3012 13.4682C24.1851 13.5843 24.0471 13.6764 23.8953 13.739C23.7435 13.8017 23.5808 13.8338 23.4165 13.8335Z" fill="currentColor"/>
<path d="M18 14.6665C18.6593 14.6665 19.3038 14.862 19.852 15.2283C20.4002 15.5946 20.8274 16.1152 21.0797 16.7243C21.332 17.3334 21.3981 18.0037 21.2694 18.6503C21.1408 19.297 20.8233 19.8909 20.3571 20.3571C19.8909 20.8233 19.297 21.1408 18.6503 21.2694C18.0037 21.3981 17.3334 21.332 16.7243 21.0797C16.1152 20.8274 15.5946 20.4002 15.2283 19.852C14.862 19.3038 14.6665 18.6593 14.6665 18C14.6675 17.1162 15.019 16.2689 15.6439 15.6439C16.2689 15.019 17.1162 14.6675 18 14.6665ZM18 13C17.0111 13 16.0444 13.2932 15.2222 13.8427C14.3999 14.3921 13.759 15.173 13.3806 16.0866C13.0022 17.0002 12.9031 18.0055 13.0961 18.9755C13.289 19.9454 13.7652 20.8363 14.4645 21.5355C15.1637 22.2348 16.0546 22.711 17.0246 22.9039C17.9945 23.0969 18.9998 22.9978 19.9134 22.6194C20.827 22.241 21.6079 21.6001 22.1574 20.7779C22.7068 19.9556 23 18.9889 23 18C23 16.6739 22.4732 15.4021 21.5355 14.4645C20.5979 13.5268 19.3261 13 18 13Z" fill="currentColor"/>
</svg>
