<svg width="96" height="52" viewBox="0 0 96 52" fill="none" xmlns="http://www.w3.org/2000/svg">
<path d="M0.467027 28.3101H11.2065C11.5178 28.3101 11.6735 28.4614 11.6735 28.7641V31.602C11.6735 31.9036 11.5178 32.055 11.2065 32.055H7.82162V50.5535C7.82162 50.8572 7.66486 51.0075 7.35459 51.0075H4.31892C4.00757 51.0075 3.85189 50.8572 3.85189 50.5535V32.055H0.468108C0.155676 32.055 0 31.9036 0 31.6009V28.7631C0 28.4614 0.155676 28.3101 0.467027 28.3101ZM17.1189 39.6593H20.0086C20.787 39.6593 21.1762 39.2809 21.1762 38.5242V33.1901C21.1762 32.4333 20.787 32.055 20.0086 32.055H17.1189V39.6593ZM25.1438 32.3966V39.3188C25.1438 41.2107 24.4335 42.4593 23.0141 43.0637L25.0281 50.4978C25.1254 50.8383 24.9881 51.0086 24.6195 51.0086H21.5838C21.3113 51.0086 21.1459 50.8761 21.0876 50.6113L19.133 43.4042H17.1189V50.5556C17.1189 50.8583 16.9622 51.0096 16.6519 51.0096H13.6173C13.3059 51.0096 13.1503 50.8583 13.1503 50.5556V28.7641C13.1503 28.4614 13.3059 28.3101 13.6173 28.3101H20.9416C22.3232 28.3101 23.3686 28.6601 24.0789 29.3601C24.7892 30.0601 25.1438 31.0722 25.1438 32.3955V32.3966ZM35.9708 43.1772L34.1038 33.2752L32.2357 43.1761H35.9708V43.1772ZM41.0778 51.0075H37.9849C37.7308 51.0075 37.5762 50.8761 37.5178 50.6113L36.7005 46.4691H31.5059L30.7168 50.6102C30.6595 50.8761 30.5038 51.0075 30.2519 51.0075H27.1276C26.7784 51.0075 26.6519 50.8478 26.7492 50.5261L31.5924 28.7063C31.6519 28.4436 31.8173 28.3101 32.0897 28.3101H36.1459C36.4184 28.3101 36.5838 28.4425 36.6422 28.7074L41.4865 50.5261C41.5449 50.8478 41.4086 51.0075 41.0778 51.0075ZM55.6022 51.0075H52.5092C52.1773 51.0075 51.9546 50.8656 51.8378 50.5818L48.16 42.1556L47.0811 44.1694V50.441C47.0811 50.8194 46.8865 51.0086 46.4973 51.0086H43.6951C43.3059 51.0086 43.1113 50.8194 43.1113 50.441V28.8776C43.1113 28.4993 43.3059 28.3101 43.6951 28.3101H46.4973C46.8865 28.3101 47.0811 28.4993 47.0811 28.8776V37.6728L51.5751 28.7357C51.7308 28.452 51.9535 28.3101 52.2454 28.3101H55.3103C55.5243 28.3101 55.6703 28.3763 55.7481 28.5087C55.8249 28.6412 55.8162 28.802 55.7189 28.9912L50.7568 38.8921L56.04 50.3548C56.1373 50.544 56.147 50.7017 56.0692 50.8236C55.9913 50.9466 55.8357 51.0075 55.6022 51.0075ZM57.7643 29.5314H68.5038C68.8151 29.5314 68.9708 29.6827 68.9708 29.9854V32.8222C68.9708 33.1249 68.8151 33.2763 68.5038 33.2763H65.1189V50.5535C65.1189 50.8572 64.9622 51.0075 64.6519 51.0075H61.6173C61.3049 51.0075 61.1503 50.8572 61.1503 50.5535V33.2763H57.7643C57.453 33.2763 57.2984 33.1249 57.2984 32.8222V29.9844C57.2984 29.6827 57.453 29.5314 57.7643 29.5314ZM75.4951 47.3478H77.1892C77.9676 47.3478 78.3567 46.9694 78.3567 46.2126V33.106C78.3567 32.3493 77.9676 31.9709 77.1892 31.9709H75.4962C74.7178 31.9709 74.3286 32.3493 74.3286 33.106V46.2126C74.3286 46.9694 74.7178 47.3478 75.4962 47.3478H75.4951ZM70.4476 46.9221V32.3955C70.4476 31.0712 70.8076 30.0601 71.5286 29.3601C72.2476 28.6601 73.2886 28.309 74.6508 28.309H77.9189C79.2811 28.309 80.3211 28.6601 81.0422 29.3601C81.7611 30.0601 82.1211 31.0722 82.1211 32.3955V46.9221C82.1211 48.2464 81.7611 49.2586 81.0422 49.9586C80.3211 50.6586 79.28 51.0075 77.9189 51.0075H74.6508C73.2886 51.0075 72.2476 50.6586 71.5276 49.9586C70.8076 49.2586 70.4476 48.2464 70.4476 46.9221ZM87.8551 39.6593H90.7438C91.5222 39.6593 91.9113 39.2809 91.9113 38.5242V33.1901C91.9113 32.4333 91.5222 32.055 90.7438 32.055H87.8551V39.6593ZM95.88 32.3966V39.3188C95.88 41.2107 95.1697 42.4593 93.7503 43.0637L95.7632 50.4978C95.8605 50.8383 95.7243 51.0086 95.3546 51.0086H92.32C92.0465 51.0086 91.8821 50.8761 91.8227 50.6113L89.8681 43.4042H87.8551V50.5556C87.8551 50.8583 87.6984 51.0096 87.3881 51.0096H84.3524C84.0411 51.0096 83.8854 50.8583 83.8854 50.5556V28.7641C83.8854 28.4614 84.0411 28.3101 84.3524 28.3101H91.6778C93.0584 28.3101 94.1038 28.6601 94.814 29.3601C95.5243 30.0601 95.88 31.0722 95.88 32.3955V32.3966Z" fill="currentColor"/>
<path d="M25.5924 26.8018L29.1308 27.7919L30.8389 27.2979L32.0897 28.3101C32.0897 28.3101 34.0011 28.6043 34.1027 28.8009C34.2043 28.9964 35.3816 28.9102 35.9708 28.8009C36.56 28.6905 37.8173 28.3101 37.8173 28.3101L40.2292 28.9176C40.2292 28.9176 40.6919 29.1435 41.0584 28.9176C41.4259 28.6905 42.2854 27.4713 43.1124 28.3101C43.9373 29.1488 43.4659 28.844 43.9373 29.1488C44.4086 29.4536 43.7805 29.4536 44.6605 29.5314C46.4443 29.6859 48.4897 28.9953 48.4897 28.9953C48.4897 28.9953 48.8584 27.4713 49.6162 28.3101C50.373 29.1488 49.5881 28.844 50.373 29.1488C51.1578 29.4536 50.2173 29.4536 51.1578 29.4536C52.1005 29.4536 54.2984 28.9964 54.2984 28.9964L55.4486 29.5314L56.1254 29.5377C56.1254 29.5377 57.3146 30.058 57.2973 29.9854C57.28 29.9119 58.5589 29.9917 58.5589 29.9917H61.0713L62.147 30.5225H64.1643C64.1643 30.5225 64.9438 30.3691 65.1157 30.5225C65.2865 30.6749 67.3373 30.5225 67.3373 30.5225L68.1113 29.9119C69.2508 30.4458 69.2659 29.5314 69.2659 29.5314L70.2227 28.6958C70.2227 28.6958 69.5146 28.3868 68.9708 28.3101C68.4259 28.2333 30.8378 25.0518 30.8378 25.0518L25.5924 26.8018Z" fill="currentColor"/>
<path d="M40.0249 18.6709C39.8141 18.159 40.3319 18.5059 39.6508 17.9583C39.0119 17.4432 38.2195 17.047 37.5535 16.7706L37.2757 17.1637C37.0552 17.4758 37.106 17.7386 37.4271 17.952L39.7352 19.4949C39.8973 19.6042 40.0476 19.6441 40.1849 19.6179C40.0498 18.7318 40.2217 19.1491 40.0249 18.6709ZM24.7114 21.6243C24.7622 21.7673 24.893 21.8598 25.1027 21.8976L28.1135 22.4547C28.4 22.5072 28.6476 22.4084 28.8552 22.1583L29.3471 21.5192C28.3914 21.3595 26.2292 21.4078 26.2292 21.4078L25.2022 20.6742L24.8325 21.1556C24.7006 21.3237 24.6595 21.4793 24.7114 21.6243ZM66.9795 24.5399C66.3342 25.0426 65.5102 25.2757 64.6883 25.1882C63.8664 25.1007 63.1138 24.6997 62.5957 24.0733C62.0785 23.4461 61.8385 22.6448 61.9285 21.8457C62.0185 21.0465 62.4311 20.3148 63.0757 19.8113C63.7208 19.3087 64.5446 19.0756 65.3664 19.1631C66.1881 19.2506 66.9405 19.6515 67.4584 20.2779C67.9755 20.9051 68.2155 21.7062 68.1257 22.5052C68.0359 23.3043 67.6237 24.0361 66.9795 24.5399ZM61.066 17.377C60.4138 17.8814 59.8705 18.5061 59.4673 19.2152C59.0641 19.9243 58.8089 20.7038 58.7164 21.509C58.6239 22.3142 58.6958 23.1293 58.9281 23.9074C59.1605 24.6855 59.5486 25.4113 60.0702 26.0432C60.5918 26.6751 61.2366 27.2006 61.9677 27.5896C62.6988 27.9785 63.5016 28.2233 64.3302 28.3098C65.1588 28.3963 65.9969 28.3228 66.7962 28.0936C67.5955 27.8644 68.3404 27.484 68.9881 26.9742C70.2737 25.9455 71.0904 24.4657 71.2615 22.8556C71.4325 21.2454 70.944 19.6346 69.9018 18.3722C68.8596 17.1098 67.3477 16.2976 65.6938 16.1115C64.0399 15.9254 62.3772 16.3805 61.066 17.3781V17.377ZM84.5957 11.6824C84.1756 12.0095 83.6391 12.1613 83.1041 12.1043C82.569 12.0474 82.079 11.7864 81.7417 11.3787C81.4052 10.9702 81.2491 10.4487 81.3077 9.92848C81.3663 9.40828 81.6347 8.93192 82.0541 8.6039C82.4744 8.27691 83.0109 8.12535 83.5459 8.1825C84.081 8.23964 84.5709 8.50081 84.9081 8.90871C85.2446 9.31717 85.4007 9.83871 85.3421 10.3589C85.2835 10.8791 85.0151 11.3555 84.5957 11.6835V11.6824ZM80.4908 6.70991C79.5543 7.44067 78.9546 8.50321 78.8239 9.6638C78.6931 10.8244 79.0419 11.9879 79.7936 12.8985C80.5452 13.8091 81.6381 14.392 82.8318 14.5192C84.0256 14.6463 85.2224 14.3072 86.159 13.5764C87.0955 12.8457 87.6952 11.7831 87.8259 10.6225C87.9567 9.46195 87.6079 8.29839 86.8563 7.38783C86.1046 6.47728 85.0117 5.89431 83.818 5.76717C82.6242 5.64003 81.4274 5.97915 80.4908 6.70991Z" fill="currentColor"/>
<path d="M72.2951 6.10347L70.9049 7.18921L69.7881 5.83756L71.1794 4.75182L72.2951 6.10347ZM74.8767 12.1607L72.2367 14.2207L71.12 12.868L73.76 10.808L74.8767 12.1607ZM67.0054 8.00903L68.3967 6.92329L69.5135 8.27494L68.1222 9.36068L67.0065 8.00798L67.0054 8.00903ZM62.0994 9.13365L59.6486 8.70798L57.6757 10.2478L54.3189 6.18125L58.1351 3.20467L64.2324 7.46984L62.0994 9.13365ZM72.5697 3.66714L73.96 2.5814L75.0768 3.9341L73.6865 5.01879L72.5697 3.66714ZM79.373 5.35933C79.9775 4.88741 80.6665 4.52822 81.4054 4.29987L80.0022 2.60032L77.8313 2.98395L76.3178 1.15197C75.9033 0.649855 75.3007 0.32836 74.6424 0.258191C73.9841 0.188022 73.3241 0.374926 72.8076 0.777796L70.2746 2.75377L68.7643 0.924943C68.3418 0.41404 67.7281 0.0869397 67.0579 0.0154123C66.3877 -0.056115 65.7156 0.133772 65.1892 0.543411L66.3049 1.89611C66.4621 1.77379 66.6628 1.71705 66.863 1.73833C67.0632 1.75961 67.2466 1.85716 67.373 2.00963L68.8832 3.83846L65.6757 6.34206L59.5784 2.07689L60.3503 1.47464C59.9079 1.17731 59.3787 1.02673 58.8413 1.04529C58.3039 1.06384 57.7871 1.25055 57.3676 1.57765L51.493 6.16233C50.9767 6.56547 50.6462 7.15146 50.5742 7.79145C50.5022 8.43144 50.6947 9.07302 51.1092 9.57509L54.0184 13.1003L52.4897 14.2943L55.9103 18.4376C55.5398 19.2963 55.2987 20.2025 55.1946 21.1283L56.9665 21.3174C57.0805 20.2876 57.4027 19.2899 57.9146 18.3815C58.4265 17.4732 59.1179 16.6721 59.9492 16.0243C63.4162 13.32 68.4876 13.8413 71.2995 17.1763L77.4486 12.3782C76.96 11.161 76.8832 9.82396 77.2295 8.56138C77.5757 7.2988 78.3269 6.17641 79.3741 5.35723L79.373 5.35933ZM54.3676 25.1096L49.2486 22.2066L50.5092 21.6307L54.5254 24.6934L54.3676 25.1096ZM55.9351 27.5218L47.1243 26.4855L48.6227 25.6909L55.9416 27.1413L55.934 27.5218H55.9351ZM49.4454 24.2793L43.1784 22.482L44.3535 22.1909L49.494 24.0449L49.4454 24.2772V24.2793ZM46.787 18.5511L46.9535 19.7367L45.9611 19.62L45.6908 19.0062L46.787 18.5511ZM39.5459 25.7319L39.44 26.5779L38.3654 26.023L38.4648 25.2242L39.5459 25.7319Z" fill="currentColor"/>
</svg>
