<svg width="1280" height="720" viewBox="0 0 1280 720" fill="none" xmlns="http://www.w3.org/2000/svg">
<rect x="0.5" y="0.5" width="1279" height="719" fill="white" stroke="#A5A5A5"/>
<path d="M409.864 381V299.545H419.727V335.818H463.159V299.545H473.023V381H463.159V344.568H419.727V381H409.864ZM516.315 382.273C510.8 382.273 505.961 380.96 501.798 378.335C497.662 375.71 494.427 372.038 492.094 367.318C489.787 362.598 488.634 357.083 488.634 350.773C488.634 344.409 489.787 338.854 492.094 334.108C494.427 329.362 497.662 325.676 501.798 323.051C505.961 320.426 510.8 319.114 516.315 319.114C521.83 319.114 526.656 320.426 530.793 323.051C534.955 325.676 538.19 329.362 540.497 334.108C542.83 338.854 543.997 344.409 543.997 350.773C543.997 357.083 542.83 362.598 540.497 367.318C538.19 372.038 534.955 375.71 530.793 378.335C526.656 380.96 521.83 382.273 516.315 382.273ZM516.315 373.841C520.505 373.841 523.952 372.767 526.656 370.619C529.361 368.472 531.363 365.648 532.662 362.148C533.961 358.648 534.611 354.856 534.611 350.773C534.611 346.689 533.961 342.884 532.662 339.358C531.363 335.831 529.361 332.981 526.656 330.807C523.952 328.633 520.505 327.545 516.315 327.545C512.126 327.545 508.679 328.633 505.974 330.807C503.27 332.981 501.268 335.831 499.969 339.358C498.67 342.884 498.02 346.689 498.02 350.773C498.02 354.856 498.67 358.648 499.969 362.148C501.268 365.648 503.27 368.472 505.974 370.619C508.679 372.767 512.126 373.841 516.315 373.841ZM558.325 381V319.909H583.303C589.878 319.909 595.102 321.394 598.973 324.364C602.844 327.333 604.78 331.258 604.78 336.136C604.78 339.848 603.679 342.725 601.479 344.767C599.278 346.782 596.454 348.148 593.007 348.864C595.261 349.182 597.448 349.977 599.57 351.25C601.717 352.523 603.494 354.273 604.899 356.5C606.304 358.701 607.007 361.405 607.007 364.614C607.007 367.742 606.212 370.54 604.621 373.006C603.03 375.472 600.75 377.42 597.78 378.852C594.81 380.284 591.257 381 587.121 381H558.325ZM567.234 372.409H587.121C590.356 372.409 592.888 371.64 594.717 370.102C596.547 368.564 597.462 366.47 597.462 363.818C597.462 360.663 596.547 358.184 594.717 356.381C592.888 354.551 590.356 353.636 587.121 353.636H567.234V372.409ZM567.234 345.523H583.303C585.821 345.523 587.982 345.178 589.786 344.489C591.589 343.773 592.967 342.765 593.922 341.466C594.903 340.14 595.393 338.576 595.393 336.773C595.393 334.201 594.32 332.186 592.172 330.727C590.024 329.242 587.068 328.5 583.303 328.5H567.234V345.523ZM646.034 382.273C640.519 382.273 635.68 380.96 631.517 378.335C627.381 375.71 624.146 372.038 621.812 367.318C619.506 362.598 618.352 357.083 618.352 350.773C618.352 344.409 619.506 338.854 621.812 334.108C624.146 329.362 627.381 325.676 631.517 323.051C635.68 320.426 640.519 319.114 646.034 319.114C651.549 319.114 656.375 320.426 660.511 323.051C664.674 325.676 667.909 329.362 670.216 334.108C672.549 338.854 673.716 344.409 673.716 350.773C673.716 357.083 672.549 362.598 670.216 367.318C667.909 372.038 664.674 375.71 660.511 378.335C656.375 380.96 651.549 382.273 646.034 382.273ZM646.034 373.841C650.223 373.841 653.67 372.767 656.375 370.619C659.08 368.472 661.081 365.648 662.381 362.148C663.68 358.648 664.33 354.856 664.33 350.773C664.33 346.689 663.68 342.884 662.381 339.358C661.081 335.831 659.08 332.981 656.375 330.807C653.67 328.633 650.223 327.545 646.034 327.545C641.845 327.545 638.398 328.633 635.693 330.807C632.989 332.981 630.987 335.831 629.688 339.358C628.388 342.884 627.739 346.689 627.739 350.773C627.739 354.856 628.388 358.648 629.688 362.148C630.987 365.648 632.989 368.472 635.693 370.619C638.398 372.767 641.845 373.841 646.034 373.841ZM712.862 382.273C707.135 382.273 702.203 380.92 698.067 378.216C693.93 375.511 690.749 371.786 688.521 367.04C686.294 362.294 685.18 356.871 685.18 350.773C685.18 344.568 686.321 339.093 688.601 334.347C690.908 329.574 694.116 325.848 698.226 323.17C702.362 320.466 707.188 319.114 712.703 319.114C716.999 319.114 720.87 319.909 724.317 321.5C727.764 323.091 730.588 325.318 732.788 328.182C734.989 331.045 736.355 334.386 736.885 338.205H727.499C726.783 335.42 725.192 332.955 722.726 330.807C720.286 328.633 716.999 327.545 712.862 327.545C709.203 327.545 705.995 328.5 703.237 330.409C700.506 332.292 698.372 334.956 696.834 338.403C695.322 341.824 694.567 345.841 694.567 350.455C694.567 355.174 695.309 359.284 696.794 362.784C698.305 366.284 700.427 369.002 703.158 370.938C705.915 372.873 709.15 373.841 712.862 373.841C715.302 373.841 717.516 373.417 719.504 372.568C721.493 371.72 723.177 370.5 724.555 368.909C725.934 367.318 726.915 365.409 727.499 363.182H736.885C736.355 366.788 735.042 370.036 732.947 372.926C730.879 375.79 728.135 378.07 724.714 379.767C721.321 381.438 717.37 382.273 712.862 382.273ZM745.794 328.659V319.909H795.43V328.659H775.385V381H765.999V328.659H745.794ZM817.236 342.023H834.736C841.895 342.023 847.37 343.839 851.162 347.472C854.954 351.104 856.849 355.705 856.849 361.273C856.849 364.932 856.001 368.259 854.304 371.256C852.607 374.225 850.115 376.598 846.827 378.375C843.539 380.125 839.509 381 834.736 381H809.122V319.909H818.509V372.25H834.736C838.448 372.25 841.497 371.269 843.884 369.307C846.27 367.345 847.463 364.826 847.463 361.75C847.463 358.515 846.27 355.877 843.884 353.835C841.497 351.794 838.448 350.773 834.736 350.773H817.236V342.023Z" fill="#555454"/>
</svg>
